<?xml version="1.0" ?><!DOCTYPE svg  PUBLIC '-//W3C//DTD SVG 1.0//EN'  'http://www.w3.org/TR/2001/REC-SVG-20010904/DTD/svg10.dtd'><svg height="110px" style="enable-background:new 0 0 110 110;" version="1.0" viewBox="0 0 110 110" width="110px" xml:space="preserve" xmlns="http://www.w3.org/2000/svg" xmlns:xlink="http://www.w3.org/1999/xlink"><g id="Artboard"/><g id="Multicolor"><g><circle cx="55" cy="55" r="55" style="fill:#A8B6C0;"/></g><g><path d="M83,76c-0.615-1.333-1.698-2.394-3.043-2.982l-9.816-2.637c8.075-9.637,13.396-21.417-0.192-35.231    c-5-5.083-15-7.15-15-7.15s-10,2.067-15,7.15c-13.474,13.699-8.13,25.534-0.075,35.227l-9.832,2.641    C28.698,73.606,27.615,74.667,27,76l-4,11h32h32L83,76z" style="fill:#3E3E3F;"/><path d="M65.949,41.25c-3-3.05-6-2.033-11-2.033s-8-1.017-11,2.033c-4.838,4.919-2.615,16.559,1.98,26.13    C49.961,71.556,55,73,55,73s4.875-1.396,8.872-5.415C68.534,57.976,70.822,46.204,65.949,41.25z" style="fill:#E2E4E5;"/><path d="M43.949,41.25c-4.856,4.938-2.599,16.648,2.032,26.24c4.014,4.094,8.968,5.51,8.968,5.51V39.217    C49.949,39.217,46.949,38.2,43.949,41.25z" style="fill:#FFFFFF;"/><g><polygon points="54.949,72 52.949,65 56.949,65    " style="fill:#3E3E3F;"/></g><path d="M65,57l-3,2l-5-2h-1h-2h-1l-5,2l-3-2h-1l2.1,2.8c0.566,0.755,1.456,1.2,2.4,1.2H53l2-2.667L57,61    h4.5c0.944,0,1.833-0.445,2.4-1.2L66,57H65z" style="fill:#3E3E3F;"/><g><path d="M53.949,51c-3-6-10,0-10,0H53.949z" style="fill:#3E3E3F;"/></g><g><path d="M55.949,51c3-6,10,0,10,0H55.949z" style="fill:#3E3E3F;"/></g><g><path d="M44.949,43c2-1,9,3.139,9,3.139S47.949,38,44.949,43z" style="fill:#3E3E3F;"/></g><g><path d="M64.949,43c-2-1-9,3.139-9,3.139S61.949,38,64.949,43z" style="fill:#3E3E3F;"/></g><path d="M55,73c0,0-4.959-1.418-8.975-5.517c2.538,5.258,5.788,9.88,8.975,12.4    c3.187-2.52,6.438-7.142,8.975-12.401C59.959,71.582,55,73,55,73z" style="fill:#F7B4B4;"/><path d="M46.025,67.483c2.538,5.258,5.788,9.88,8.975,12.4V73C55,73,50.041,71.582,46.025,67.483z" style="fill:#FBC8C8;"/></g></g></svg>