<?xml version="1.0" ?><!DOCTYPE svg  PUBLIC '-//W3C//DTD SVG 1.1//EN'  'http://www.w3.org/Graphics/SVG/1.1/DTD/svg11.dtd'><svg style="enable-background:new 0 0 499.996 500.004;" version="1.1" viewBox="0 0 499.996 500.004" xml:space="preserve" xmlns="http://www.w3.org/2000/svg" xmlns:xlink="http://www.w3.org/1999/xlink"><g id="security-safety-shield"><g><path d="M249.998,500.004C111.931,500.004,0,388.074,0,249.998C0,111.931,111.931,0,249.998,0    c138.058,0,249.998,111.931,249.998,249.998C499.996,388.074,388.057,500.004,249.998,500.004z" style="fill:#A8B6C0;"/><g><linearGradient gradientUnits="userSpaceOnUse" id="SVGID_1_" x1="135.418" x2="364.5823" y1="250.0065" y2="250.0065"><stop offset="0.5" style="stop-color:#FFFFFF"/><stop offset="0.5" style="stop-color:#EBEBEB"/></linearGradient><path d="M364.582,171.981v11.325c0,3.427-0.175,33.555-0.543,38.974     c-0.666,10.299-2.086,20.513-4.222,30.333c-20.487,94.478-99.717,125.17-103.076,126.426l-5.269,1.974     c-0.479,0.179-0.975,0.273-1.483,0.273c-0.496,0-0.996-0.094-1.47-0.273l-5.269-1.974     c-3.368-1.256-82.594-31.974-103.085-126.426c-2.128-9.82-3.551-20.017-4.226-30.333c-0.351-5.436-0.521-35.547-0.521-38.974     v-11.325c0-1.872,1.235-3.53,3.038-4.043l10.889-3.12c21.871-6.256,38.461-16.94,53.089-26.376     c16.423-10.581,30.602-19.718,47.555-19.718c16.957,0,31.136,9.137,47.555,19.701c14.645,9.453,31.23,20.136,53.106,26.393     l10.884,3.12C363.339,168.452,364.582,170.11,364.582,171.981z" style="fill:url(#SVGID_1_);"/><linearGradient gradientUnits="userSpaceOnUse" id="SVGID_2_" x1="143.8068" x2="356.1764" y1="249.8698" y2="249.8698"><stop offset="0.5" style="stop-color:#586373"/><stop offset="0.5" style="stop-color:#474F59"/></linearGradient><path d="M356.176,175.144l-7.846-2.256c-23.06-6.59-40.205-17.641-55.333-27.385     c-15.299-9.854-28.517-18.367-43.008-18.367c-14.483,0-27.696,8.513-43.004,18.359c-15.12,9.752-32.261,20.803-55.329,27.393     l-7.85,2.256v8.162c0,4.094,0.196,33.53,0.512,38.436c0.645,9.889,2.013,19.675,4.056,29.094     c19.534,90.025,94.636,119.153,97.82,120.332l3.795,1.436l3.803-1.436c3.188-1.179,78.281-30.29,97.82-120.332     c2.038-9.419,3.402-19.205,4.047-29.094c0.325-4.897,0.517-34.333,0.517-38.436V175.144z" style="fill:url(#SVGID_2_);"/><linearGradient gradientUnits="userSpaceOnUse" id="SVGID_3_" x1="154.6358" x2="341.0314" y1="249.5022" y2="249.5022"><stop offset="0.5" style="stop-color:#FFFFFF"/><stop offset="0.5" style="stop-color:#EBEBEB"/></linearGradient><path d="M249.989,221.041v27.495H158.96c-1.863-8.573-3.192-17.726-3.825-27.495     c-0.295-4.462-0.5-33.025-0.5-37.735c47.679-13.649,72.016-45.341,95.354-45.341V221.041z M249.989,248.537V361.04     c0,0,72.529-27.162,91.042-112.503H249.989z" style="fill:url(#SVGID_3_);"/></g></g></g><g id="Layer_1"/></svg>